<svg xmlns="http://www.w3.org/2000/svg" viewBox="0 0 327.78 156.1"><title>Asset 9</title><g id="Layer_2" data-name="Layer 2"><g id="Layer_1-2" data-name="Layer 1"><path d="M188.14,27.67c2.34-2.22,6.82-7,9.13-9C213.7,4,232.69-2.7,254.72,1a45.51,45.51,0,0,1,26,13.75c8.92,9.49,15.46,20.44,15.83,34,.31,11.4-2.9,21.63-10.89,30.05-4,4.23-9.08,6.82-14.33,9.26a23.92,23.92,0,0,1-14.82,2.14,25.62,25.62,0,0,1-20.94-23.31c0-.49-.06-1-.06-1.12,0-.37,0-.37,0-.6l0-.7a.16.16,0,0,0-.07-.11c-.4-.29-.8-.66-1.45-1.1-14.07-11-28.17-21.92-42.21-32.95a28.34,28.34,0,0,0-2.6-1.88m3-2.93.23.54L285,25.48c-.68-1.11-1-1.73-1.41-2.27C272.29,8.45,256.9,2.29,238.84,2.83c-15.61.46-29.1,6.88-40.87,17C195.92,21.58,194.1,23.61,192.17,25.53Zm43.59,36.72a23.59,23.59,0,0,1,3.36-7.43c3-4.38,9.31-7.82,15.19-6.59a8.26,8.26,0,0,1,1.08.38l2-1.4c8.12-5.9,16.16-11.9,24.21-17.89A18.09,18.09,0,0,0,283.4,28c-29.92.49-60.19-1-90,1.15C207.35,40.05,221.78,51.31,235.76,62.25Zm31.4,23.89a14.35,14.35,0,0,0,2.61-1,31.49,31.49,0,0,0,13.66-10.42c10-13.55,11-28.13,4.73-43.46a24.9,24.9,0,0,0-1.41-2.36c-.24.59-.59,1.86-.78,2.41q-9,26.06-17.92,52.13C267.85,84,267.55,85,267.16,86.14ZM284.67,29a19.88,19.88,0,0,0-2.17,1.23C274.42,36,266.27,41.85,258.3,47.7c-.58.49-1.23,1-1.45,1.22,0,0-.18.13-.18.16s.93.68,1.61,1.25c4.12,3.54,5.58,8.54,2.79,12.87a4.17,4.17,0,0,0-.48,3.84c1.48,4.92,2.92,9.86,4.39,14.79.16.53.27,1.11.41,1.76.22,1.1.39,1.9.39,1.9s.13-.43.66-2.12ZM239,64.12l-1.12,0c-.1,0,.36.3.91.7l25.3,19.59c-.55-2-.4-1.55-.94-3.59-.77-3-1.18-4-1.75-5.89-.66-2.12-1-3.12-1.61-5.25-.48-1.61-.92-3.15-1.1-3.57a.16.16,0,0,0-.21-.09c-.24.07-.82.5-1.28.65-1.88.73-3.84.8-5.32-.63a6.11,6.11,0,0,0-4.58-1.65C244.58,64.34,241.81,64.21,239,64.12Zm-2.16,1.58c0,5.16,3.18,12.53,8.18,16.24,5.26,3.9,15.14,6.17,18.86,5C255.38,80.3,245.53,72.4,236.88,65.7ZM249,62.82c.44-1.3.84-2.12,1.3-3.4.79-1.85,1.48-3.64,2.31-5.54.47-1.16,1-2.22,1.15-2.69-.43.3-2,1.53-2.37,1.78Q245.64,57,240,61.17c-.38.28-.69.55-1.12.91a6.49,6.49,0,0,0-.78.69l1.07,0C242.49,62.79,245.81,62.78,249,62.82Zm-11.42-2.55A12.78,12.78,0,0,0,237.1,62s.67-.49,1.39-1.1C243.21,57.35,249,53.26,254,49.64c0,0,.4-.23.45-.29l-.49-.12C247.84,47.67,239.36,52.94,237.54,60.27Zm21.76,2.28a6.34,6.34,0,0,0,1-7.46,15.86,15.86,0,0,0-3.35-4.3,4.57,4.57,0,0,0-1.28-.82,5.24,5.24,0,0,0,.22.84C257,54.53,258.25,58.92,259.3,62.55Zm-1.71-1.66c-.68-2.36-1.31-4.63-2-6.88,0-.1-.64-2.48-.64-2.48a13.39,13.39,0,0,0-1.27,2.32C252.18,57.36,253.71,60.42,257.59,60.89Zm-1.58,2c.57,0,1.42-.09,1.42-.09s-.56-.4-1.18-.77a15.12,15.12,0,0,1-2.07-1.35,6.26,6.26,0,0,1-2-2.66c-.36.92-1.43,3.63-1.94,4.9Zm.76,2.55,1.31-.78-1.23-.13L253,64.37,252,64.28l1,.94a3.35,3.35,0,0,0,1.72.59A3.71,3.71,0,0,0,256.77,65.49Z"/><path d="M92.29,27.93h-19l.3-1.48h39.5l-.29,1.48h-19L82.93,78.78H81.46Z"/><path d="M111.23,40.53h1.47l-2.06,9.88a23.6,23.6,0,0,1,6.93-7,17.74,17.74,0,0,1,7.88-2.83,3.58,3.58,0,0,1,.7-.08h.7L126.56,42a17.09,17.09,0,0,0-9.69,3.53,22.93,22.93,0,0,0-7.11,9.07L104.6,78.78h-1.48Z"/><path d="M134.59,40.53h1.48L128,78.78h-1.47ZM137.91,25h1.47l-1.18,5.68h-1.47Z"/><path d="M148.08,40.53h1.4l-1.7,8.11a25,25,0,0,1,3.47-3.5,27.32,27.32,0,0,1,4-2.77,20.39,20.39,0,0,1,4.32-1.8,15.5,15.5,0,0,1,4.27-.63,12.08,12.08,0,0,1,5.79,1.37A13.49,13.49,0,0,1,174,45a16.67,16.67,0,0,1,2.69,5.24,20.25,20.25,0,0,1,.92,6,22.36,22.36,0,0,1-1.7,8.51,25.24,25.24,0,0,1-4.64,7.45,24.05,24.05,0,0,1-6.85,5.3,17.86,17.86,0,0,1-8.33,2,12.2,12.2,0,0,1-4.42-.77A13.84,13.84,0,0,1,148,76.68a13.46,13.46,0,0,1-2.81-3A17.89,17.89,0,0,1,143.29,70l-5.23,24.47h-1.48Zm8.25,37.52a15.91,15.91,0,0,0,7.67-2,22.17,22.17,0,0,0,6.3-5,24.25,24.25,0,0,0,4.24-7,20.66,20.66,0,0,0,1.55-7.7,18.29,18.29,0,0,0-.89-5.68,15.14,15.14,0,0,0-2.54-4.79,12.59,12.59,0,0,0-4-3.28,11,11,0,0,0-5.2-1.21,14.13,14.13,0,0,0-4.75.95,23.85,23.85,0,0,0-5,2.58,22.26,22.26,0,0,0-4.31,3.76,11.71,11.71,0,0,0-2.54,4.42l-3,13.79a16.18,16.18,0,0,0,1.62,4.38,13.64,13.64,0,0,0,2.69,3.5,12.45,12.45,0,0,0,3.65,2.36A11.25,11.25,0,0,0,156.33,78.05Z"/><path d="M53.24,78.55a32.11,32.11,0,0,0,.52-7.65c-.17-1.83-1.74-2.27-3.65-.79-3.22,2.44-9.74,9-13.74,13.39-2.34,2.61-4.69,5.22-6.86,8-.87,1.13-1.66,2.18-2.44,3.31a55.28,55.28,0,0,0-5.74,11c-1.3,3.3-2.52,6.52-3.82,9.74a87.31,87.31,0,0,1-4.09,8.6,15.63,15.63,0,0,1-2.7,3.65C9.59,129,8.29,129.58,7,129.15c-1.66-.61-1.48-2.87-.61-4.52,1.3-2.61,2.43-5.13,3.74-7.65a120.09,120.09,0,0,0,7-18.26,26,26,0,0,0,.87-7c-.09-5.13-.78-10.35-3.22-13.39a5.41,5.41,0,0,0-4.17-1.92,5.65,5.65,0,0,0-3,1C5.86,78.46,4,79.85,2.29,81.16c-.87.43-1.74.6-2.17-.27s.43-2.26,1-2.69A44,44,0,0,1,6.9,73.85a10.49,10.49,0,0,1,6.43-1.91c5.13,0,8.09,5.91,8.87,10.09.35,2,.7,4,1.13,6,.35,1.74,1.13,2.27,2.52.7,3.66-4,8.61-9.3,12.87-13.56A133.82,133.82,0,0,1,51.85,63.68,7.09,7.09,0,0,1,56,62c3.57,0,3.57,5.39,3.57,7.47a49.78,49.78,0,0,1-1,9C57.15,86.89,55,95.85,53,103.85c-1.57,6.26-3.22,12.78-4.87,19A93.3,93.3,0,0,0,45.76,136a22.07,22.07,0,0,0,.44,8.26c.87,3.56,3.3,5.82,8.17,5.82a22.71,22.71,0,0,0,8.17-1.82c3.92-1.57,7.92-3.66,12.09-5.83.78-.43,2-.61,2.43.26s-.17,1.74-1,2.35a86.55,86.55,0,0,1-14.08,8.61,22.69,22.69,0,0,1-9.74,2.43,10.48,10.48,0,0,1-7.57-2.87c-3.3-3.13-4.26-7.56-4.26-12.78,0-6.17,1.92-13.21,3-17.39C46.89,108.46,50.81,92.54,53.24,78.55Z"/><path d="M108.7,117.5c1-.44,1.92-.26,2.27.69a2.05,2.05,0,0,1-.7,2.09,15,15,0,0,1-2.61,1.74c-.78.43-1.65.87-2.43,1.22a44.08,44.08,0,0,1-5,2.08,40.33,40.33,0,0,1-8.78,2.26c-3.13.35-5,.35-7.74-1.47-1-.7-1.65-1.22-2.78-2-1.74.87-3.56,1.82-5.39,2.69s-3.74,1.65-5.74,2.35A6.45,6.45,0,0,1,63,128c-1.3-1.13-1.91-4.52-.69-6.78,2.69-4.79,6.43-11.22,9.21-15.91a2.6,2.6,0,0,1,2.78-1.39,1.73,1.73,0,0,1,1.4,1.73,10.17,10.17,0,0,1-.79,3.31c-1.21,2.87-3.13,7.13-4.52,10.26-.43,1.3-.26,2.78,1.57,2.78a5.61,5.61,0,0,0,2.87-.87,24.7,24.7,0,0,0,8-7c1.39-2,3-4.43,4.34-6.34a6.36,6.36,0,0,1,2.44-2.18,3.25,3.25,0,0,1,2.87.18,2.3,2.3,0,0,1,1,2.43,6.54,6.54,0,0,1-.7,1.92l-2.6,5.21C88.1,119.58,88,122,92.62,122c3.39,0,8.17-1.48,11.39-2.61C105.75,118.8,107.14,118.11,108.7,117.5Z"/><path d="M162.17,127a12.64,12.64,0,0,1-9.82-4.6c-.79-1.05-1.92-2.61-2.61-3.74a1.81,1.81,0,0,0-2.61-.61,50.34,50.34,0,0,1-6.26,3.56,15.41,15.41,0,0,1-6.35,2c-3,0-4.43-2.78-5.65-5a1.71,1.71,0,0,0-2.52-.26c-3.3,2.95-6.69,6-10.17,8.95a8.48,8.48,0,0,1-5.13,2.35,4.29,4.29,0,0,1-3.83-4.35,20.47,20.47,0,0,1,.61-5.13c1-3.65,1.91-7.21,3.22-11a16.6,16.6,0,0,1,1.74-3.65,2.43,2.43,0,0,1,2.43-1.39c.7,0,1.31,1,1,2.34-.78,3.13-1.83,7.31-2.44,10.35-.69,3.3-.87,5.91.18,5.91a3.66,3.66,0,0,0,2.26-1c4.17-3.83,8.17-8,11.91-12.17,1.3-1.48,2.7-3.13,4.43-3.13s2.35,1.47,2.35,3.3c0,1.13,0,2.52.09,3.3.43,3.31,1.22,4.7,2.78,4.7,3.57.09,8.69-4.17,11.13-6.61.69-.7,1.22-1.3,1.83-2,1.39-1.65,2.34-3,4.26-3,1.39.08,1.82,1.73,1.65,2.86a21,21,0,0,0-.52,4.35,8.06,8.06,0,0,0,2.17,5.83A6.4,6.4,0,0,0,163,121.5a23.12,23.12,0,0,0,10.79-3,16.14,16.14,0,0,1,2.08-1c1.05-.43,1.92-.17,2.26.78a2,2,0,0,1-.69,2.09c-.52.43-1,.87-1.65,1.3C171.82,124.37,167,127,162.17,127Z"/><path d="M192.16,129.32a7.24,7.24,0,0,1-5-.17c-3.91-1.65-4-1.57-6.35,2-1,1.39-1.74,2.69-3.48,3.48a3,3,0,0,1-1.91-.09c-2.09-1-2.43-3-2.26-5a52.53,52.53,0,0,1,1.48-7.57c2.69-9.65,5.48-19.47,8.69-28.95s7-18.78,11.22-28a48,48,0,0,1,7.39-12.34c.61-.87,1.65-1.74,2.69-1a1.6,1.6,0,0,1,.09,2.18,62.45,62.45,0,0,0-4.35,7.39C195.9,69.85,192.68,79,189.2,88c-1.3,3.39-2.43,6.52-3.39,9.83a127.41,127.41,0,0,0-3.39,14c-.26,1.39.35,1.65,1.48.52,2.44-2.44,4.09-4,6.78-6.35,3-2.69,7.39-5.22,10.87-5.22a5,5,0,0,1,3.39,1.31c2.18,2,2.7,4.35,2.52,7.39a21.79,21.79,0,0,1-1,5.65,22.16,22.16,0,0,1-5.91,8.78A21.4,21.4,0,0,1,192.16,129.32Zm2.61-9.56a5,5,0,0,0,4.61-1.83c2.17-3.13,3.91-6.43,3.21-10.52a2.22,2.22,0,0,0-2.08-1.91,4.64,4.64,0,0,0-3,1.13A29.26,29.26,0,0,0,188.34,117,10.11,10.11,0,0,0,194.77,119.76Z"/><path d="M225.11,99.85a4.79,4.79,0,0,1,3.3,1.3c3,3,3.05,5,1.22,8.26a20.14,20.14,0,0,1-6.17,6.78,30.76,30.76,0,0,1-4.7,2.79c1,3,5.13,3.56,9,3.56a39.88,39.88,0,0,0,7.65-.87,66.82,66.82,0,0,0,10-3.13,20.62,20.62,0,0,0,2.34-1c1-.44,1.92-.26,2.26.69a2,2,0,0,1-.69,2.09,14.88,14.88,0,0,1-2.87,2.09,51.52,51.52,0,0,1-10.17,4.34,49,49,0,0,1-12.7,2,16.57,16.57,0,0,1-9.21-2.43,10.63,10.63,0,0,1-4.18-8.87,17.51,17.51,0,0,1,5-12.08C217.46,103.15,221.54,99.85,225.11,99.85Zm-8,10.69a7.17,7.17,0,0,0-.52,3.57,10.41,10.41,0,0,0,2.87-1.22,15.42,15.42,0,0,0,3.13-2.44,8.32,8.32,0,0,0,2-3c.52-1.56-1.22-2-2.26-1.56A8.74,8.74,0,0,0,217.11,110.54Z"/><path d="M252.67,100.54a3.09,3.09,0,0,1,1-3.73,14.09,14.09,0,0,1,3.39-2.18c1.13-.52,2,0,2.87.7a12.76,12.76,0,0,1,1.91,2.34c.7,1,1.39,2.61,2.52,3.13,5.39,2.79,5.74,7.48,4.79,12.53-.44,2.69-1.57,5.3-.87,8.17.34,1.48,1.91,2.08,3.3,2.08a17,17,0,0,0,4.78-.87,78.41,78.41,0,0,0,9.91-3.56c1.66-.7,2.7-1.22,3.74-1.65s1.92-.26,2.26.69a2,2,0,0,1-.69,2.09A15,15,0,0,1,289,122c-3,1.65-5.74,3-8.87,4.52a27.79,27.79,0,0,1-12.26,2.78,6.19,6.19,0,0,1-4.69-1.65,6.67,6.67,0,0,1-1.83-4.61c0-3.39,1-6.78,1.57-9.65a10.74,10.74,0,0,0,.08-4.08,3.7,3.7,0,0,0-2.69-2.61,2.72,2.72,0,0,0-2.7,1c-2,3.13-2.35,3.74-4.17,7-2.61,4.52-3.39,5.91-5.65,10.43-1.31,2.61-1.57,3.22-2.78,6.09-.53,1.21-1,2.52-1.48,3.82a2.48,2.48,0,0,1-2.7,1,2.51,2.51,0,0,1-1.48-2.34,14.58,14.58,0,0,1,1.48-4.09c2.18-4.61,3.48-7,5.65-11,1.66-3.13,2.26-4.18,3.83-6.78s2.26-3.74,4.26-6.87C254.06,103.67,253.36,102.11,252.67,100.54Z"/><path d="M317,125.15c-1.91,1-3.82,1.82-6,2.78-3.82,1.65-7.74,3.13-11.74,4.61a10.19,10.19,0,0,1-11.39-2.78c-2.26-2.7-2.08-5.57-1.3-8.52a6.59,6.59,0,0,1,2.26-3.48c6.09-5.22,11.74-10.17,17.56-15,1.22-1,2.35-1.92,3.48-3a2.35,2.35,0,0,1,3.83,2.7c-1.13,3.3-2.35,6.43-3.48,9.82a13.23,13.23,0,0,0-.7,6.35c.27,1.65,2,1.74,3.74,1.56a40,40,0,0,0,9.39-2.52c1.13-.43,2-.87,2.78-1.22,1.05-.43,1.92-.26,2.27.7a2.06,2.06,0,0,1-.7,2.09,31.89,31.89,0,0,1-2.78,1.91A68.63,68.63,0,0,1,317,125.15Zm-17.39-1.39a15.73,15.73,0,0,0,3.39-10.7c0-.86-.69-1.13-1.47-.78a17.43,17.43,0,0,0-7.83,6.7,7.62,7.62,0,0,0-.7,2.6,3.55,3.55,0,0,0,4.35,3.66A4.38,4.38,0,0,0,299.61,123.76Z"/><path d="M209.83,81.27a4.34,4.34,0,0,1-1.38-.21,4.21,4.21,0,0,1-1.11-.59,4.56,4.56,0,0,1-.84-.86,4.78,4.78,0,0,1-.55-1L205.43,81H205l3.52-16.55h.45L207.35,72a11.78,11.78,0,0,1,2.43-2.11,5,5,0,0,1,2.72-.82,3.53,3.53,0,0,1,1.8.44,3.88,3.88,0,0,1,1.27,1.11,4.58,4.58,0,0,1,.76,1.55,6.24,6.24,0,0,1,.25,1.76,6.53,6.53,0,0,1-.59,2.74A8.26,8.26,0,0,1,214.45,79a7.74,7.74,0,0,1-2.16,1.63A5.39,5.39,0,0,1,209.83,81.27Zm0-.45a5,5,0,0,0,2.33-.59,7.23,7.23,0,0,0,2-1.55,8.1,8.1,0,0,0,1.4-2.19,6.53,6.53,0,0,0,.52-2.52,5.67,5.67,0,0,0-.25-1.64,4.44,4.44,0,0,0-.73-1.42,3.65,3.65,0,0,0-1.18-1,3.36,3.36,0,0,0-1.61-.37,4.07,4.07,0,0,0-1.47.26,5.91,5.91,0,0,0-1.34.7,10.47,10.47,0,0,0-1.22,1c-.4.39-.77.79-1.14,1.22l-1,5.1A3.34,3.34,0,0,0,207.42,80,3.94,3.94,0,0,0,209.87,80.82Z"/><path d="M216.47,85.74a5.39,5.39,0,0,0,1.17-.36,3.48,3.48,0,0,0,.89-.6,5.65,5.65,0,0,0,.81-1c.26-.37.57-.83.92-1.36l.93-1.43-2.7-11.76h.5l2.54,11.2,1.31-2.09c.71-1.13,1.31-2.11,1.8-3s.91-1.59,1.25-2.28a19.8,19.8,0,0,0,.86-2c.24-.61.45-1.25.65-1.93h.48c-.22.72-.43,1.4-.66,2s-.52,1.28-.86,2-.78,1.47-1.28,2.33-1.14,1.9-1.9,3.09l-1.86,2.92c-.54.85-1,1.55-1.39,2.1a8.89,8.89,0,0,1-1.11,1.32,4.19,4.19,0,0,1-1.07.72,4.65,4.65,0,0,1-1.24.35Z"/></g></g></svg>